<svg
xmlns:dc="http://purl.org/dc/elements/1.1/"
   xmlns:cc="http://creativecommons.org/ns#"
   xmlns:rdf="http://www.w3.org/1999/02/22-rdf-syntax-ns#"
   xmlns:svg="http://www.w3.org/2000/svg"
   xmlns="http://www.w3.org/2000/svg"
   xmlns:sodipodi="http://sodipodi.sourceforge.net/DTD/sodipodi-0.dtd"
   xmlns:inkscape="http://www.inkscape.org/namespaces/inkscape"
   version="1.0"
   width="48"
   height="48.004814"
   id="svg2"
   inkscape:version="0.48.4 r9939"
   sodipodi:docname="ic_data_detail_tire.svg"
   inkscape:export-xdpi="480"
   inkscape:export-ydpi="480"
   viewBox="0 0 24 24">
	<path style="opacity:1;fill:#ffffff;fill-opacity:1;stroke:none" d="m19.66 9.64l-.36-.94l1.86-.7c-.92-2.12-2.56-3.82-4.62-4.86l-.8 1.78l-.92-.42l.8-1.8C14.5 2.26 13.28 2 12 2c-1.06 0-2.08.22-3.04.5l.68 1.84l-.94.36L8 2.84c-2.12.92-3.82 2.56-4.86 4.62l1.78.8l-.42.92l-1.8-.8C2.26 9.5 2 10.72 2 12c0 1.06.22 2.08.5 3.04l1.84-.68l.36.94l-1.86.7c.92 2.12 2.56 3.82 4.62 4.86l.8-1.78l.92.42l-.8 1.8c1.12.44 2.34.7 3.62.7c1.06 0 2.08-.22 3.04-.5l-.68-1.84l.94-.36l.7 1.86c2.12-.92 3.82-2.56 4.86-4.62l-1.78-.8l.42-.92l1.8.8c.44-1.12.7-2.34.7-3.62c0-1.06-.22-2.08-.5-3.04zm-5.36 7.9c-3.06 1.26-6.58-.18-7.84-3.24s.18-6.58 3.24-7.84s6.58.18 7.84 3.24a5.986 5.986 0 0 1-3.24 7.84" />
</svg>
