<?xml version="1.0" encoding="UTF-8" standalone="no"?>
<svg
   xmlns:dc="http://purl.org/dc/elements/1.1/"
   xmlns:cc="http://creativecommons.org/ns#"
   xmlns:rdf="http://www.w3.org/1999/02/22-rdf-syntax-ns#"
   xmlns:svg="http://www.w3.org/2000/svg"
   xmlns="http://www.w3.org/2000/svg"
   xmlns:sodipodi="http://sodipodi.sourceforge.net/DTD/sodipodi-0.dtd"
   xmlns:inkscape="http://www.inkscape.org/namespaces/inkscape"
   version="1.0"
   width="32"
   height="32"
   id="svg2"
   inkscape:version="0.48.4 r9939"
   sodipodi:docname="ic_first_start_step2.svg"
   inkscape:export-filename="E:\git\car-report\res\drawable-xhdpi\ic_first_start_step2.png"
   inkscape:export-xdpi="180"
   inkscape:export-ydpi="180">
  <metadata
     id="metadata18">
    <rdf:RDF>
      <cc:Work
         rdf:about="">
        <dc:format>image/svg+xml</dc:format>
        <dc:type
           rdf:resource="http://purl.org/dc/dcmitype/StillImage" />
        <dc:title></dc:title>
      </cc:Work>
    </rdf:RDF>
  </metadata>
  <defs
     id="defs16" />
  <sodipodi:namedview
     pagecolor="#ffffff"
     bordercolor="#666666"
     borderopacity="1"
     objecttolerance="1"
     gridtolerance="1"
     guidetolerance="1"
     inkscape:pageopacity="0"
     inkscape:pageshadow="2"
     inkscape:window-width="1920"
     inkscape:window-height="1017"
     id="namedview14"
     showgrid="true"
     fit-margin-top="0"
     fit-margin-left="0"
     fit-margin-right="0"
     fit-margin-bottom="0"
     inkscape:zoom="15.84"
     inkscape:cx="30.477691"
     inkscape:cy="10.822983"
     inkscape:window-x="-8"
     inkscape:window-y="-8"
     inkscape:window-maximized="1"
     inkscape:current-layer="svg2">
    <inkscape:grid
       type="xygrid"
       id="grid3752"
       empspacing="5"
       visible="true"
       enabled="true"
       snapvisiblegridlinesonly="true" />
  </sodipodi:namedview>
  <path
     style="font-size:33.27826691px;font-style:normal;font-weight:normal;line-height:125%;letter-spacing:0px;word-spacing:0px;opacity:0.8;fill:#ffffff;fill-opacity:1;stroke:none;font-family:Sans"
     d="M 11.5,4 C 9.1926128,4.000024 7.3432579,4.6621763 6,6 4.6567338,7.3378676 4.039584,8.9780361 4.09375,10.90625 L 4.125,11 7.1875,11 C 7.1874946,9.7217515 7.5812824,8.6683081 8.3125,7.8125 9.0437047,6.9567323 10.102565,6.5312715 11.5,6.53125 c 1.126597,2.15e-5 1.985855,0.3325575 2.625,1.03125 0.63912,0.6987333 0.968737,1.5934092 0.96875,2.6875 -1.3e-5,0.964133 -0.216288,1.927149 -0.6875,2.875 -0.471238,0.947881 -1.397163,2.209263 -2.71875,3.8125 l -7.40625,8.875 0,2.1875 7.356692,0 c -0.437866,0 -1.263187,-0.639264 -1.609375,-2 -0.01948,-0.173564 -0.03006,-0.333879 -0.03125,-0.5 L 8.1875,25.5 8.15625,25.40625 12.74241,19.498104 c 0.890517,-1.91267 1.376768,-3.429392 1.758526,-4.983589 0.02135,-1.149326 0.02376,-1.372298 0.172664,-1.984848 0.28392,-0.882705 0.659955,-1.702158 1.486423,-2.267679 l -0.01578,-0.9542302 c -0.0083,-0.5005441 0.823055,-0.9757012 1.490539,-0.9757012 l 0.375,0 C 17.754989,7.1786975 17.318028,6.5689721 16.46875,5.75 15.255466,4.5800843 13.612378,4.000024 11.5,4 z"
     id="text3754"
     inkscape:connector-curvature="0"
     sodipodi:nodetypes="cscccccccsccccccccccccssccc" />
  <path
     inkscape:connector-curvature="0"
     id="path3760"
     d="m 17.765348,8.7099595 c -0.667484,0 -1.204844,0.4030201 -1.204844,0.9036327 l 0,0.8534308 c -0.826468,0.565521 -1.297436,1.338724 -1.581356,2.221429 -0.148903,0.61255 -0.0665,0.795993 -0.08785,1.945319 -0.483041,1.966535 -1.003995,3.69425 -2.49754,6.513684 -0.884748,1.377144 -1.930663,2.86268 -1.706862,4.857024 0.346188,1.360736 1.231548,1.955955 2.497539,1.995521 1.647407,-0.142942 2.447513,-0.966251 2.623044,-2.296732 l 0.02509,-10.64278 0.727926,-0.01256 0,11.132249 c 0,0.500612 0.537361,0.903631 1.204843,0.903631 l 0,0.903633 9.036324,0 0,-0.903633 c 0.667484,0 1.204843,-0.403019 1.204843,-0.903631 l 0,-16.5665936 c 0,-0.5006126 -0.537359,-0.9036327 -1.204843,-0.9036327 l -9.036324,0 z m 1.506054,1.8072655 6.024216,0 c 0.500611,0 0.903632,0.26868 0.903632,0.602422 l 0,4.819372 c 0,0.333741 -0.403021,0.602421 -0.903632,0.602421 l -6.024216,0 c -0.500613,0 -0.903634,-0.26868 -0.903634,-0.602421 l 0,-4.819372 c 0,-0.333742 0.403021,-0.602422 0.903634,-0.602422 z m -4.367557,7.379663 0.01256,7.80638 c -0.231716,0.87128 -0.603826,1.397249 -1.719416,1.393099 -1.279671,-0.0059 -1.58796,-0.841954 -1.631558,-1.380548 -0.283891,-2.350959 1.295686,-2.611727 3.33842,-7.818931 z"
     style="opacity:0.8;fill:#ffffff;fill-opacity:1;stroke:none" />
</svg>
