<?xml version="1.0" encoding="UTF-8" standalone="no"?>
<!-- Created with Inkscape (http://www.inkscape.org/) -->

<svg
   xmlns:dc="http://purl.org/dc/elements/1.1/"
   xmlns:cc="http://creativecommons.org/ns#"
   xmlns:rdf="http://www.w3.org/1999/02/22-rdf-syntax-ns#"
   xmlns:svg="http://www.w3.org/2000/svg"
   xmlns="http://www.w3.org/2000/svg"
   xmlns:sodipodi="http://sodipodi.sourceforge.net/DTD/sodipodi-0.dtd"
   xmlns:inkscape="http://www.inkscape.org/namespaces/inkscape"
   width="32"
   height="32"
   id="svg3135"
   version="1.1"
   inkscape:version="0.48.4 r9939"
   sodipodi:docname="ic_first_start_step1.svg"
   inkscape:export-filename="E:\git\car-report\res\drawable-xhdpi\ic_first_start_step1.png"
   inkscape:export-xdpi="180"
   inkscape:export-ydpi="180">
  <defs
     id="defs3137" />
  <sodipodi:namedview
     id="base"
     pagecolor="#ffffff"
     bordercolor="#666666"
     borderopacity="1.0"
     inkscape:pageopacity="0.0"
     inkscape:pageshadow="2"
     inkscape:zoom="31.678384"
     inkscape:cx="9.3883932"
     inkscape:cy="15.654827"
     inkscape:document-units="px"
     inkscape:current-layer="layer1"
     showgrid="true"
     inkscape:window-width="1920"
     inkscape:window-height="1017"
     inkscape:window-x="-8"
     inkscape:window-y="-8"
     inkscape:window-maximized="1"
     objecttolerance="1"
     gridtolerance="1"
     guidetolerance="1">
    <inkscape:grid
       type="xygrid"
       id="grid3170"
       empspacing="5"
       visible="true"
       enabled="true"
       snapvisiblegridlinesonly="true" />
  </sodipodi:namedview>
  <metadata
     id="metadata3140">
    <rdf:RDF>
      <cc:Work
         rdf:about="">
        <dc:format>image/svg+xml</dc:format>
        <dc:type
           rdf:resource="http://purl.org/dc/dcmitype/StillImage" />
        <dc:title></dc:title>
      </cc:Work>
    </rdf:RDF>
  </metadata>
  <g
     inkscape:label="Ebene 1"
     inkscape:groupmode="layer"
     id="layer1"
     transform="translate(0,-1020.3622)">
    <g
       style="opacity:0.8;fill:#ffffff;fill-opacity:1;stroke:none"
       transform="matrix(0.18320611,0,0,0.18320611,-5.1603055,868.93706)"
       id="g5825">
      <path
         style="fill:#ffffff;fill-opacity:1;stroke:none"
         d="m 107,912.36218 -24,23 -23,0 c 0,0 -10,0 -10,16 0,16 10,16 10,16 l 15,0 c 0,0 0,-15 15,-15 15,0 15,15 15,15 l 30,0 c 0,0 0,-15 15,-15 15,0 15,15 15,15 l 10,0 c 0,0 6,0 6,-16 0,-16 -6,-16 -6,-16 l -18,0 -12,-23 z"
         id="path5827"
         inkscape:connector-curvature="0"
         sodipodi:nodetypes="cccsccsccsccscccc" />
      <path
         transform="matrix(1.0606061,0,0,0.94594594,-5.8333334,826.38921)"
         style="fill:#ffffff"
         d="m 102.14285,148.5 c 0,7.29805 -5.27664,13.21429 -11.78571,13.21429 -6.509071,0 -11.785715,-5.91624 -11.785715,-13.21429 0,-7.29805 5.276644,-13.21429 11.785715,-13.21429 6.50907,0 11.78571,5.91624 11.78571,13.21429 z"
         id="path5829" />
      <path
         transform="matrix(1.0606061,0,0,0.94594594,54.166667,826.38921)"
         style="fill:#ffffff"
         d="m 102.14285,148.5 c 0,7.29805 -5.27664,13.21429 -11.78571,13.21429 -6.509071,0 -11.785715,-5.91624 -11.785715,-13.21429 0,-7.29805 5.276644,-13.21429 11.785715,-13.21429 6.50907,0 11.78571,5.91624 11.78571,13.21429 z"
         id="path5831" />
    </g>
    <g
       style="font-size:33.27826691px;font-style:normal;font-variant:normal;font-weight:normal;font-stretch:normal;line-height:125%;letter-spacing:0px;word-spacing:0px;opacity:0.8;fill:#ffffff;fill-opacity:1;stroke:none;font-family:Roboto;-inkscape-font-specification:Roboto"
       id="text2990">
      <path
         d="m 12.442081,1037.4118 -2.5870033,2.5385 -0.6380047,0 -0.00296,-11.3477 -5.1509817,0.049 0,-2.4699 8.3683157,-0.8774 z"
         id="path3763"
         inkscape:connector-curvature="0"
         sodipodi:nodetypes="cccccccc" />
    </g>
  </g>
</svg>
